<?xml version="1.0" encoding="UTF-8"?>
<svg width="221px" height="91px" viewBox="0 0 221 91" version="1.1" xmlns="http://www.w3.org/2000/svg" xmlns:xlink="http://www.w3.org/1999/xlink">
    <defs>
        <polygon id="path-1" points="0.622 0.709 68.935 0.709 68.935 40.94 0.622 40.94"></polygon>
        <polygon id="path-3" points="0.881 0.467 17.691 0.467 17.691 15.94 0.881 15.94"></polygon>
    </defs>
    <g id="Page-1" stroke="none" stroke-width="1" fill="none" fill-rule="evenodd">
        <g id="HU_ENGnw_CMYKu_rdbl_lg">
            <g id="Group" transform="translate(0.000000, 0.766000)">
                <polygon id="Fill-1" fill="#009CC8" points="29.968 37.604 44.954 37.604 44.954 0.145 29.968 0.145"></polygon>
                <polygon id="Fill-2" fill="#009CC8" points="29.968 90.056 44.954 90.056 44.954 52.591 29.968 52.591"></polygon>
                <polygon id="Fill-3" fill="#009CC8" points="0 90.056 14.987 90.056 14.987 0.145 0 0.145"></polygon>
                <path d="M104.899,45.098 L104.899,0.145 L89.914,0.145 L89.914,45.098 C89.914,49.236 86.547,52.593 82.421,52.593 C78.269,52.593 74.928,49.236 74.928,45.098 L74.928,0.145 L59.941,0.145 L59.933,45.098 C59.933,57.547 69.984,67.582 82.421,67.582 C94.855,67.582 104.903,57.547 104.903,45.098 L104.899,45.098" id="Fill-4" fill="#DE492A"></path>
                <path d="M138.363,15.534 C136.294,15.534 134.622,14.258 134.622,11.838 L134.622,0.176 L137.13,0.176 L137.13,11.838 C137.13,12.674 137.614,13.158 138.363,13.158 C139.133,13.158 139.639,12.674 139.639,11.838 L139.639,0.176 L142.147,0.176 L142.147,11.75 C142.147,14.258 140.475,15.534 138.363,15.534" id="Fill-5" fill="#009CC8"></path>
                <polyline id="Fill-6" fill="#009CC8" points="150.749 15.358 147.228 5.985 147.228 15.358 144.808 15.358 144.808 0.176 147.052 0.176 150.572 9.682 150.572 0.176 153.015 0.176 153.015 15.358 150.749 15.358"></polyline>
                <polygon id="Fill-7" fill="#009CC8" points="155.653 15.359 158.162 15.359 158.162 0.176 155.653 0.176"></polygon>
                <path d="M166.148,14.918 L165.884,15.358 L163.024,15.358 L162.759,14.918 C161.66,13.07 160.691,10.737 160.691,7.482 L160.691,0.176 L163.2,0.176 L163.2,7.129 C163.2,9.55 163.706,11.464 164.432,13.048 C165.158,11.442 165.708,9.571 165.708,7.129 L165.708,0.176 L168.216,0.176 L168.216,7.482 C168.216,10.737 167.27,13.07 166.148,14.918" id="Fill-8" fill="#009CC8"></path>
                <polyline id="Fill-9" fill="#009CC8" points="170.79 15.358 170.79 0.176 177.567 0.176 177.567 2.509 173.298 2.509 173.298 6.469 176.907 6.469 176.907 8.802 173.298 8.802 173.298 13.026 177.567 13.026 177.567 15.358 170.79 15.358"></polyline>
                <path d="M185.068,4.181 C185.068,3.103 184.804,2.509 183.726,2.509 L182.56,2.509 L182.56,6.646 L183.726,6.646 C184.804,6.646 185.068,6.029 185.068,4.951 L185.068,4.181 Z M185.068,15.358 L185.068,10.649 C185.068,9.55 184.804,8.978 183.726,8.978 L182.56,8.978 L182.56,15.358 L180.051,15.358 L180.051,0.176 L183.879,0.176 C186.321,0.176 187.577,1.584 187.577,4.026 L187.577,5.105 C187.577,6.425 187.181,7.306 186.321,7.789 C187.181,8.23 187.577,9.066 187.577,10.474 L187.577,15.358 L185.068,15.358 L185.068,15.358 Z" id="Fill-10" fill="#009CC8"></path>
                <path d="M193.405,15.534 C191.294,15.534 189.62,14.105 189.62,12.058 L189.62,11.002 L192.13,11.002 L192.13,11.838 C192.13,12.762 192.724,13.158 193.405,13.158 C194.153,13.158 194.659,12.674 194.659,11.838 L194.659,11.31 C194.659,10.562 194.462,10.122 193.89,9.638 L190.897,7.129 C190.392,6.711 189.62,5.721 189.62,4.357 L189.62,3.608 C189.62,1.496 191.116,0 193.405,0 C195.671,0 197.19,1.431 197.19,3.608 L197.19,4.621 L194.659,4.621 L194.659,3.608 C194.659,2.86 194.153,2.355 193.405,2.355 C192.724,2.355 192.13,2.86 192.13,3.608 L192.13,4.115 C192.13,4.797 192.394,5.171 192.833,5.545 L195.825,8.054 C196.749,8.823 197.19,9.615 197.19,10.826 L197.19,12.014 C197.19,14.038 195.495,15.534 193.405,15.534" id="Fill-11" fill="#009CC8"></path>
                <polygon id="Fill-12" fill="#009CC8" points="199.499 15.359 202.007 15.359 202.007 0.176 199.499 0.176"></polygon>
                <polyline id="Fill-13" fill="#009CC8" points="208.894 2.421 208.894 15.358 206.384 15.358 206.384 2.421 203.524 2.421 203.524 0.176 211.753 0.176 211.753 2.421 208.894 2.421"></polyline>
                <path d="M218.198,9.814 L217.935,10.254 L217.935,15.358 L215.427,15.358 L215.427,10.254 L215.163,9.814 C214.062,7.966 212.917,5.942 212.917,2.685 L212.917,0.176 L215.427,0.176 L215.427,2.355 C215.427,4.731 215.954,6.425 216.702,7.877 C217.45,6.425 217.935,4.731 217.935,2.355 L217.935,0.176 L220.466,0.176 L220.466,2.685 C220.466,5.942 219.343,7.921 218.198,9.814" id="Fill-14" fill="#009CC8"></path>
                <path d="M139.551,28.597 C139.551,27.761 139.067,27.255 138.296,27.255 C137.526,27.255 137.042,27.761 137.042,28.597 L137.042,36.738 C137.042,37.574 137.526,38.059 138.296,38.059 C139.067,38.059 139.551,37.574 139.551,36.738 L139.551,28.597 Z M138.296,40.435 C136.206,40.435 134.534,39.158 134.534,36.738 L134.534,28.686 C134.534,26.154 136.206,24.9 138.296,24.9 C140.387,24.9 142.059,26.154 142.059,28.597 L142.059,36.65 C142.059,39.158 140.387,40.435 138.296,40.435 L138.296,40.435 Z" id="Fill-15" fill="#009CC8"></path>
                <polyline id="Fill-16" fill="#009CC8" points="147.25 27.409 147.25 31.369 150.858 31.369 150.858 33.702 147.25 33.702 147.25 40.259 144.742 40.259 144.742 25.076 151.519 25.076 151.519 27.409 147.25 27.409"></polyline>
                <path d="M163.684,28.597 C163.684,27.761 163.178,27.255 162.408,27.255 C161.66,27.255 161.175,27.761 161.175,28.597 L161.175,31.369 L163.684,31.369 L163.684,28.597 Z M163.684,40.259 L163.684,33.702 L161.175,33.702 L161.175,40.259 L158.667,40.259 L158.667,28.686 C158.667,26.154 160.339,24.9 162.408,24.9 C164.52,24.9 166.193,26.154 166.193,28.597 L166.193,40.259 L163.684,40.259 L163.684,40.259 Z" id="Fill-17" fill="#009CC8"></path>
                <path d="M173.98,29.081 C173.98,28.003 173.716,27.409 172.638,27.409 L171.472,27.409 L171.472,31.546 L172.638,31.546 C173.716,31.546 173.98,30.93 173.98,29.852 L173.98,29.081 Z M172.792,33.878 L171.472,33.878 L171.472,40.259 L168.963,40.259 L168.963,25.076 L172.792,25.076 C175.234,25.076 176.489,26.484 176.489,28.927 L176.489,30.005 C176.489,32.47 175.234,33.878 172.792,33.878 L172.792,33.878 Z" id="Fill-18" fill="#009CC8"></path>
                <path d="M183.594,29.081 C183.594,28.003 183.331,27.409 182.252,27.409 L181.085,27.409 L181.085,31.546 L182.252,31.546 C183.331,31.546 183.594,30.93 183.594,29.852 L183.594,29.081 Z M182.406,33.878 L181.085,33.878 L181.085,40.259 L178.578,40.259 L178.578,25.076 L182.406,25.076 C184.848,25.076 186.103,26.484 186.103,28.927 L186.103,30.005 C186.103,32.47 184.848,33.878 182.406,33.878 L182.406,33.878 Z" id="Fill-19" fill="#009CC8"></path>
                <polyline id="Fill-20" fill="#009CC8" points="188.19 40.259 188.19 25.076 190.698 25.076 190.698 37.927 194.968 37.927 194.968 40.259 188.19 40.259"></polyline>
                <polygon id="Fill-21" fill="#009CC8" points="196.946 40.259 199.454 40.259 199.454 25.076 196.946 25.076"></polygon>
                <polyline id="Fill-22" fill="#009CC8" points="202.183 40.259 202.183 25.076 208.96 25.076 208.96 27.409 204.69 27.409 204.69 31.369 208.3 31.369 208.3 33.702 204.69 33.702 204.69 37.927 208.96 37.927 208.96 40.259 202.183 40.259"></polyline>
                <path d="M216.571,29.081 C216.571,28.003 216.308,27.409 215.229,27.409 L214.063,27.409 L214.063,37.927 L215.229,37.927 C216.308,37.927 216.571,37.311 216.571,36.21 L216.571,29.081 Z M215.384,40.259 L211.556,40.259 L211.556,25.076 L215.384,25.076 C217.825,25.076 219.081,26.484 219.081,28.927 L219.081,36.386 C219.081,38.851 217.825,40.259 215.384,40.259 L215.384,40.259 Z" id="Fill-23" fill="#009CC8"></path>
                <path d="M137.878,65.334 C135.766,65.334 134.094,63.904 134.094,61.858 L134.094,60.802 L136.602,60.802 L136.602,61.638 C136.602,62.562 137.196,62.959 137.878,62.959 C138.626,62.959 139.133,62.474 139.133,61.638 L139.133,61.109 C139.133,60.361 138.935,59.922 138.363,59.438 L135.37,56.929 C134.864,56.511 134.094,55.521 134.094,54.156 L134.094,53.408 C134.094,51.296 135.59,49.8 137.878,49.8 C140.145,49.8 141.663,51.231 141.663,53.408 L141.663,54.421 L139.133,54.421 L139.133,53.408 C139.133,52.66 138.626,52.154 137.878,52.154 C137.196,52.154 136.602,52.66 136.602,53.408 L136.602,53.915 C136.602,54.597 136.866,54.971 137.306,55.345 L140.299,57.854 C141.223,58.623 141.663,59.415 141.663,60.626 L141.663,61.814 C141.663,63.837 139.969,65.334 137.878,65.334" id="Fill-24" fill="#009CC8"></path>
                <path d="M147.357,65.334 C145.267,65.334 143.595,64.058 143.595,61.638 L143.595,53.585 C143.595,51.054 145.267,49.8 147.357,49.8 C149.447,49.8 151.12,51.054 151.12,53.496 L151.12,55.169 L148.611,55.169 L148.611,53.496 C148.611,52.66 148.127,52.154 147.357,52.154 C146.587,52.154 146.103,52.66 146.103,53.496 L146.103,61.638 C146.103,62.474 146.587,62.959 147.357,62.959 C148.127,62.959 148.611,62.474 148.611,61.638 L148.611,59.789 L151.12,59.789 L151.12,61.55 C151.12,64.058 149.447,65.334 147.357,65.334" id="Fill-25" fill="#009CC8"></path>
                <polygon id="Fill-26" fill="#009CC8" points="153.261 65.158 155.769 65.158 155.769 49.976 153.261 49.976"></polygon>
                <polyline id="Fill-27" fill="#009CC8" points="158.026 65.229 158.026 50.047 164.803 50.047 164.803 52.38 160.535 52.38 160.535 56.34 164.143 56.34 164.143 58.673 160.535 58.673 160.535 62.897 164.803 62.897 164.803 65.229 158.026 65.229"></polyline>
                <polyline id="Fill-28" fill="#009CC8" points="172.939 65.158 169.419 55.786 169.419 65.158 166.999 65.158 166.999 49.976 169.243 49.976 172.764 59.482 172.764 49.976 175.206 49.976 175.206 65.158 172.939 65.158"></polyline>
                <path d="M181.16,65.334 C179.069,65.334 177.397,64.058 177.397,61.638 L177.397,53.585 C177.397,51.054 179.069,49.8 181.16,49.8 C183.25,49.8 184.92,51.054 184.92,53.497 L184.92,55.169 L182.414,55.169 L182.414,53.497 C182.414,52.661 181.929,52.155 181.16,52.155 C180.389,52.155 179.905,52.661 179.905,53.497 L179.905,61.638 C179.905,62.474 180.389,62.959 181.16,62.959 C181.929,62.959 182.414,62.474 182.414,61.638 L182.414,59.79 L184.92,59.79 L184.92,61.55 C184.92,64.058 183.25,65.334 181.16,65.334" id="Fill-29" fill="#009CC8"></path>
                <polyline id="Fill-30" fill="#009CC8" points="186.992 65.3 186.992 50.119 193.77 50.119 193.77 52.452 189.5 52.452 189.5 56.412 193.109 56.412 193.109 58.745 189.5 58.745 189.5 62.968 193.77 62.968 193.77 65.3 186.992 65.3"></polyline>
                <g id="Group-34" transform="translate(134.000000, 49.234000)">
                    <mask id="mask-2" fill="white">
                        <use xlink:href="#path-1"></use>
                    </mask>
                    <g id="Clip-32"></g>
                    <path d="M65.151,16.242 C63.038,16.242 61.366,14.812 61.366,12.768 L61.366,11.711 L63.874,11.711 L63.874,12.547 C63.874,13.471 64.468,13.867 65.151,13.867 C65.899,13.867 66.405,13.383 66.405,12.547 L66.405,12.018 C66.405,11.27 66.206,10.831 65.634,10.347 L62.642,7.838 C62.136,7.42 61.366,6.43 61.366,5.065 L61.366,4.317 C61.366,2.205 62.862,0.709 65.151,0.709 C67.417,0.709 68.935,2.14 68.935,4.317 L68.935,5.33 L66.405,5.33 L66.405,4.317 C66.405,3.569 65.899,3.063 65.151,3.063 C64.468,3.063 63.874,3.569 63.874,4.317 L63.874,4.824 C63.874,5.506 64.138,5.88 64.579,6.254 L67.571,8.763 C68.495,9.532 68.935,10.324 68.935,11.535 L68.935,12.723 C68.935,14.746 67.241,16.242 65.151,16.242" id="Fill-31" fill="#009CC8" mask="url(#mask-2)"></path>
                    <path d="M4.363,41 C2.294,41 0.622,39.725 0.622,37.305 L0.622,25.643 L3.13,25.643 L3.13,37.305 C3.13,38.141 3.614,38.625 4.363,38.625 C5.133,38.625 5.639,38.141 5.639,37.305 L5.639,25.643 L8.147,25.643 L8.147,37.217 C8.147,39.725 6.475,41 4.363,41" id="Fill-33" fill="#DE492A" mask="url(#mask-2)"></path>
                </g>
                <polyline id="Fill-35" fill="#DE492A" points="149.187 77.121 149.187 90.058 146.678 90.058 146.678 77.121 143.818 77.121 143.818 74.877 152.047 74.877 152.047 77.121 149.187 77.121"></polyline>
                <path d="M158.69,78.881 C158.69,77.802 158.426,77.209 157.348,77.209 L156.182,77.209 L156.182,81.345 L157.348,81.345 C158.426,81.345 158.69,80.73 158.69,79.652 L158.69,78.881 Z M158.69,90.058 L158.69,85.349 C158.69,84.25 158.426,83.677 157.348,83.677 L156.182,83.677 L156.182,90.058 L153.674,90.058 L153.674,74.877 L157.502,74.877 C159.945,74.877 161.199,76.285 161.199,78.726 L161.199,79.804 C161.199,81.125 160.803,82.005 159.945,82.49 C160.803,82.929 161.199,83.765 161.199,85.173 L161.199,90.058 L158.69,90.058 L158.69,90.058 Z" id="Fill-36" fill="#DE492A"></path>
                <g id="Group-40" transform="translate(163.000000, 74.234000)">
                    <mask id="mask-4" fill="white">
                        <use xlink:href="#path-3"></use>
                    </mask>
                    <g id="Clip-38"></g>
                    <polyline id="Fill-37" fill="#DE492A" mask="url(#mask-4)" points="0.881 15.824 0.881 0.643 7.659 0.643 7.659 2.975 3.39 2.975 3.39 6.936 6.999 6.936 6.999 9.268 3.39 9.268 3.39 13.492 7.659 13.492 7.659 15.824 0.881 15.824"></polyline>
                    <path d="M13.928,16 C11.837,16 10.166,14.725 10.166,12.305 L10.166,4.252 C10.166,1.721 11.837,0.467 13.928,0.467 C16.018,0.467 17.691,1.721 17.691,4.162 L17.691,5.836 L15.182,5.836 L15.182,4.162 C15.182,3.326 14.698,2.82 13.928,2.82 C13.158,2.82 12.673,3.326 12.673,4.162 L12.673,12.305 C12.673,13.141 13.158,13.625 13.928,13.625 C14.698,13.625 15.182,13.141 15.182,12.305 L15.182,10.455 L17.691,10.455 L17.691,12.217 C17.691,14.725 16.018,16 13.928,16" id="Fill-39" fill="#DE492A" mask="url(#mask-4)"></path>
                </g>
                <polyline id="Fill-41" fill="#DE492A" points="188.39 90.058 188.39 83.502 185.882 83.502 185.882 90.058 183.374 90.058 183.374 74.877 185.882 74.877 185.882 81.17 188.39 81.17 188.39 74.877 190.899 74.877 190.899 90.058 188.39 90.058"></polyline>
                <polyline id="Fill-42" fill="#DE492A" points="197.938 77.121 197.938 90.058 195.429 90.058 195.429 77.121 192.569 77.121 192.569 74.877 200.798 74.877 200.798 77.121 197.938 77.121"></polyline>
            </g>
        </g>
    </g>
</svg>
