<svg id="eab44131-0365-4263-a3cd-7091aba95979" data-name="Logo" xmlns="http://www.w3.org/2000/svg" viewBox="0 0 191.34 45.3"><defs><style>.a5fce35b-8240-46b3-83ab-9acd415b5f59{fill:#006991;}.e6c38ad4-2547-4267-934c-8d2d82041196{fill:#00a0d1;}.f4b011c5-61e4-4314-89ed-5684c5ab32e8{fill:#04afdc;}</style></defs><title>logo_radboud-umc-en</title><path class="a5fce35b-8240-46b3-83ab-9acd415b5f59" d="M8.1,2.14c3,0,4.76,1.13,4.76,3.91,0,3.4-2.61,4.1-5.59,4.1H6.52v-8Zm4.34,9.3c2.77-1,4.88-2.94,4.88-6C17.32,1,13.06,0,9.26,0H.44C.07,0,0,.2,0,.52v.67c0,.53.2.56.89.75l1.45.4V20.81L.89,21.2C.2,21.4,0,21.43,0,22v.66c0,.33.07.53.44.53h8c.37,0,.44-.2.44-.53V22c0-.53-.2-.56-.89-.76l-1.45-.39V12.07h2.1a79.22,79.22,0,0,0,5.79,10.52,1,1,0,0,0,1.09.56h4.46c.37,0,.44-.2.44-.53V22c0-.63-.34-.6-.89-.76a2.67,2.67,0,0,1-1.86-1.36,56.73,56.73,0,0,1-5.18-8.4Zm13,7.38a2,2,0,0,1,1.81-2.16l3.54-.85v3.51a5.41,5.41,0,0,1-3.45,1.58c-.85,0-1.9-.36-1.9-2.08Zm23.93.1a5.24,5.24,0,0,1-3.7,1.95c-2.64,0-3.77-2.78-3.77-5.92,0-3.74,1.61-6,4-6s3.43,2.51,3.43,6ZM53,.79c0-.5-.17-.79-.76-.79H47.39C47,0,47,.2,47,.52V1c0,.59.2.63.9.82l1.55.46V7.9a5.47,5.47,0,0,0-3.7-1.26c-3.58,0-7.64,2.61-7.64,9,0,5.59,3.11,8,6.15,8,1.95,0,3.6-1,5.19-2.62v1.35c0,.5.16.8.76.8h4.9c.36,0,.42-.2.42-.53V22.2c0-.6-.19-.64-.88-.84L53,20.9ZM107.93,7.9c0-.49-.16-.79-.76-.79h-4.89c-.4,0-.43.2-.43.53v.43c0,.59.2.63.89.83l1.55.45v9.57c-1.32,1.42-2.34,1.95-3.7,1.95-2.55,0-2.75-1.95-2.75-5.29V7.9c0-.49-.16-.79-.75-.79h-4.9c-.4,0-.43.2-.43.53v.43c0,.59.2.63.89.83l1.56.45v8.11c0,5.13,2.38,6.16,4.8,6.16A6.58,6.58,0,0,0,104.29,21v1.35c0,.5.17.8.76.8H110c.36,0,.43-.2.43-.53V22.2c0-.6-.2-.64-.9-.84l-1.55-.46ZM36.47,23.15c.37,0,.43-.2.43-.53V22.2c0-.6-.2-.64-.89-.84l-1.55-.46v-9c0-4-2.79-5.3-6.39-5.3a16.15,16.15,0,0,0-4.23.57c-.9.27-1.06.49-1.15,1.36l-.2,1.78c0,.33.07.46.29.46a2.29,2.29,0,0,0,.93-.36,9,9,0,0,1,4.13-1.1c2.84,0,3,1.89,3,3.18v1.66L24.7,15.41c-2,.4-3.11,1.39-3.11,3.74,0,2.58,1.32,4.47,4.11,4.47,1.81,0,3.13-.6,5.12-2.49v1.22c0,.5.16.8.76.8Zm32.17-7.91c0,4.24-2.14,6.26-4.53,6.26s-2.94-2.25-2.94-4.67V11.34a5.3,5.3,0,0,1,3.71-2c2.64,0,3.76,2.79,3.76,5.86Zm3.88-.72c0-5.43-3.11-7.88-6.15-7.88-1.92,0-3.58,1-5.2,2.61V.79c0-.5-.16-.79-.75-.79h-4.9c-.36,0-.43.2-.43.52V1c0,.59.2.63.89.82l1.56.46V21.1a1.1,1.1,0,0,0,.62,1.13,13.46,13.46,0,0,0,6,1.39c5.29,0,8.37-3.71,8.37-9.1ZM123,18.92a5.21,5.21,0,0,1-3.7,1.95c-2.64,0-3.77-2.78-3.77-5.92,0-3.74,1.62-6,4-6s3.43,2.51,3.43,6ZM126.62.79c0-.5-.17-.79-.77-.79H121c-.4,0-.43.2-.43.52V1c0,.59.2.63.89.82l1.55.46V7.9a5.47,5.47,0,0,0-3.7-1.26c-3.57,0-7.64,2.61-7.64,9,0,5.59,3.11,8,6.16,8A7.27,7.27,0,0,0,123,21v1.35c0,.5.17.8.77.8h4.89c.36,0,.43-.2.43-.53V22.2c0-.6-.2-.64-.89-.84l-1.55-.46ZM82.9,21.33c-2.68,0-4.27-2.64-4.27-6.19s1.56-6.21,4.27-6.21,4.3,2.61,4.3,6.18-1.59,6.22-4.3,6.22Zm-.4,2.29c5.62,0,8.43-4.3,8.43-8.9,0-4.27-2.44-8.08-7.7-8.08-5.62,0-8.43,4.3-8.43,8.9,0,4.27,2.44,8.08,7.7,8.08Z"/><path class="e6c38ad4-2547-4267-934c-8d2d82041196" d="M191.34,7.73c0-.39-.13-.42-.47-.55a11.65,11.65,0,0,0-3.66-.54c-6.52,0-8.24,4.57-8.24,8.47s1.65,8.51,8.24,8.51a11.69,11.69,0,0,0,3.66-.53c.34-.14.47-.17.47-.57V20.07c0-.23-.07-.33-.23-.33a2,2,0,0,0-.57.2,7.43,7.43,0,0,1-3.14.73c-3,0-4.89-1.85-4.89-5.56s1.88-5.52,4.89-5.52a7.43,7.43,0,0,1,3.14.73,2,2,0,0,0,.57.2c.16,0,.23-.1.23-.33Zm-59-.62c-.4,0-.43.2-.43.53v.43c0,.59.2.63.89.83l1.55.45V16.8c0,5.62,2.52,6.82,5.16,6.82a5.4,5.4,0,0,0,4.76-2.49h.1v1.62c0,.27.1.4.4.4h2.61c.3,0,.4-.13.4-.4V7.51a.35.35,0,0,0-.4-.4h-2.71c-.3,0-.4.13-.4.4V18.45a4.42,4.42,0,0,1-3.73,2.09c-2.55,0-2.68-1.85-2.68-4.76V7.51a.35.35,0,0,0-.4-.4Zm19.87,15.64c0,.27.1.4.4.4h2.71c.29,0,.39-.13.39-.4V11.81a4.44,4.44,0,0,1,3.74-2.09c2.55,0,2.68,1.86,2.68,4.77v8.26c0,.27.1.4.4.4h2.71c.29,0,.39-.13.39-.4V11.81a4.44,4.44,0,0,1,3.74-2.09c2.55,0,2.68,1.86,2.68,4.77v8.26c0,.27.1.4.4.4h2.71c.29,0,.39-.13.39-.4V13.47c0-5.67-2.48-6.83-5.19-6.83a6.6,6.6,0,0,0-5.49,2.68,4.34,4.34,0,0,0-4.4-2.68,5.5,5.5,0,0,0-4.76,2.48h-.1V7.51a.35.35,0,0,0-.39-.4h-2.61c-.3,0-.4.13-.4.4Z"/><path class="f4b011c5-61e4-4314-89ed-5684c5ab32e8" d="M40.43,39.65V34.52h.81v5c0,1.33.4,2.22,1.89,2.22a3.77,3.77,0,0,0,2-.64V34.52h.83v7.77H45.1v-.62a3.69,3.69,0,0,1-2.18.75C41.05,42.42,40.43,41.24,40.43,39.65Zm8-5.13h.84v.62a3.68,3.68,0,0,1,2.17-.75c1.89,0,2.51,1.18,2.51,2.77v5.13h-.83v-5c0-1.31-.4-2.19-1.9-2.19a3.74,3.74,0,0,0-2,.64v6.54h-.84Zm7.86-2.39a.6.6,0,1,1,.59.62A.6.6,0,0,1,56.31,32.13Zm.17,2.39h.84v7.77h-.84Zm2.4,0h.87l2.3,6.81,2.29-6.81h.83l-2.71,7.77h-.89ZM66,38.44c0-2.42,1.28-4,3.34-4s2.78,1.74,2.78,3.28a5.06,5.06,0,0,1,0,.54H66.86v.2c0,1.84.82,3.31,2.75,3.31a4.52,4.52,0,0,0,2.1-.48V42a5.07,5.07,0,0,1-2.11.45C67.22,42.42,66,40.82,66,38.44Zm.89-.88h4.38v-.08c0-1.24-.67-2.39-2-2.39C68.37,35.09,67.17,35.57,66.91,37.56Zm7-3h.83v.81a2.43,2.43,0,0,1,1.92-.94,2.76,2.76,0,0,1,.7.11v.78a3.46,3.46,0,0,0-.78-.12,2.33,2.33,0,0,0-1.84.86v6.27H74ZM78.24,42v-.74a5.2,5.2,0,0,0,2,.47c1.2,0,1.91-.48,1.91-1.49s-.71-1.2-1.78-1.6c-1.23-.45-2.08-1-2.08-2.19,0-1.4,1-2,2.45-2a4.55,4.55,0,0,1,1.85.37v.75a4.37,4.37,0,0,0-1.84-.42c-1,0-1.64.45-1.64,1.3s.7,1.18,1.61,1.5c1.09.39,2.27.85,2.27,2.31S82,42.42,80.39,42.42A5.57,5.57,0,0,1,78.24,42Zm6.52-9.86a.6.6,0,1,1,.59.62A.6.6,0,0,1,84.76,32.13Zm.18,2.39h.83v7.77h-.83Zm2.43,0h1.07l.18-2.08h.67v2.08h1.79v.67H89.29v5.09c0,1,.33,1.42,1.18,1.42a2.23,2.23,0,0,0,.93-.19v.72a3.75,3.75,0,0,1-1.07.19c-1.3,0-1.89-.54-1.89-2.06V35.19H87.37Zm4.72,10.66V44.5a2.61,2.61,0,0,0,.78.12c.94,0,1.33-.74,1.58-1.59l.24-.78L91.8,34.52h.88l2.44,6.62,2.18-6.62h.83l-3,8.86c-.43,1.3-1,1.92-2.22,1.92A2.16,2.16,0,0,1,92.09,45.18Zm11.14-10.66h.84v.6a3.68,3.68,0,0,1,2.17-.73,2.17,2.17,0,0,1,1.76.77,4.25,4.25,0,0,1,2.38-.77c1.92,0,2.5,1.15,2.5,2.77v5.13H112v-5c0-1.23-.3-2.19-1.87-2.19a4.3,4.3,0,0,0-1.92.54A3.25,3.25,0,0,1,108.5,37v5.33h-.84v-5.1c0-1.47-.57-2.08-1.72-2.08a3.62,3.62,0,0,0-1.87.64v6.54h-.84Zm11.46,3.92c0-2.42,1.27-4,3.34-4s2.78,1.74,2.78,3.28a5.06,5.06,0,0,1,0,.54h-5.26v.2c0,1.84.82,3.31,2.75,3.31a4.56,4.56,0,0,0,2.1-.48V42a5.11,5.11,0,0,1-2.11.45C115.88,42.42,114.69,40.82,114.69,38.44Zm.89-.88H120v-.08c0-1.24-.67-2.39-1.95-2.39C117,35.09,115.84,35.57,115.58,37.56Zm6.4.88c0-2.28,1.33-4,3.53-4a3.53,3.53,0,0,1,1.63.37V31.41H128V42.29h-.84v-.62a2.66,2.66,0,0,1-1.93.75C123.13,42.42,122,40.93,122,38.44Zm5.16,2.61V35.46a3.51,3.51,0,0,0-1.55-.35c-1.77,0-2.73,1.33-2.73,3.3,0,1.77.65,3.28,2.51,3.28A2.73,2.73,0,0,0,127.14,41.05Zm3.25-8.92a.6.6,0,1,1,.59.62A.6.6,0,0,1,130.39,32.13Zm.18,2.39h.83v7.77h-.83Zm2.78,4.06c0-2.27,1.07-4.19,3.34-4.19a4,4,0,0,1,1.89.41v.72a3.65,3.65,0,0,0-1.81-.43c-1.79,0-2.57,1.41-2.57,3.49s1.1,3.14,2.7,3.14a3.55,3.55,0,0,0,1.84-.42V42a4,4,0,0,1-2,.41C134.69,42.42,133.35,40.93,133.35,38.58Zm6.4,1.71c0-1.48,1.23-2.36,3.37-2.36.26,0,.67,0,.95,0V36.84c0-1.25-.55-1.73-1.84-1.73a4,4,0,0,0-1.86.48v-.75a4.84,4.84,0,0,1,2-.45c1.39,0,2.53.54,2.53,2.19v4.35c0,.53.25.79.67.79a2.53,2.53,0,0,0,.3,0v.64a2.3,2.3,0,0,1-.6.09,1.09,1.09,0,0,1-1.11-.85,2.85,2.85,0,0,1-2,.85A2.12,2.12,0,0,1,139.75,40.29Zm4.32.71V38.58l-.87,0c-1.64,0-2.59.58-2.59,1.66a1.49,1.49,0,0,0,1.67,1.51A2.67,2.67,0,0,0,144.07,41Zm3.35-9.59h.84V42.29h-.84Zm6.32,7.17c0-2.27,1.07-4.19,3.34-4.19a4,4,0,0,1,1.89.41v.72a3.65,3.65,0,0,0-1.81-.43c-1.79,0-2.57,1.41-2.57,3.49s1.1,3.14,2.7,3.14a3.55,3.55,0,0,0,1.84-.42V42a4,4,0,0,1-1.95.41C155.09,42.42,153.74,40.93,153.74,38.58Zm6.43-.14c0-2.42,1.28-4,3.34-4s2.79,1.74,2.79,3.28a5.06,5.06,0,0,1,0,.54H161v.2c0,1.84.81,3.31,2.75,3.31a4.59,4.59,0,0,0,2.1-.48V42a5.12,5.12,0,0,1-2.12.45C161.37,42.42,160.17,40.82,160.17,38.44Zm.9-.88h4.38v-.08c0-1.24-.67-2.39-1.95-2.39C162.52,35.09,161.32,35.57,161.07,37.56Zm7.05-3H169v.62a3.69,3.69,0,0,1,2.18-.75c1.88,0,2.51,1.18,2.51,2.77v5.13h-.83v-5c0-1.31-.4-2.19-1.91-2.19a3.78,3.78,0,0,0-2,.64v6.54h-.83Zm7,0h1.07l.18-2.08H177v2.08h1.79v.67H177v5.09c0,1,.33,1.42,1.18,1.42a2.23,2.23,0,0,0,.93-.19v.72a3.75,3.75,0,0,1-1.07.19c-1.3,0-1.89-.54-1.89-2.06V35.19h-1.07Zm4.83,3.92c0-2.42,1.28-4,3.34-4S186,36.13,186,37.67c0,.18,0,.34,0,.54h-5.26v.2c0,1.84.81,3.31,2.75,3.31a4.51,4.51,0,0,0,2.09-.48V42a5,5,0,0,1-2.11.45C181.11,42.42,179.91,40.82,179.91,38.44Zm.89-.88h4.39v-.08c0-1.24-.68-2.39-2-2.39C182.26,35.09,181.06,35.57,180.8,37.56Zm7-3h.83v.81a2.44,2.44,0,0,1,1.92-.94,2.76,2.76,0,0,1,.7.11v.78a3.46,3.46,0,0,0-.78-.12,2.35,2.35,0,0,0-1.84.86v6.27h-.83Z"/></svg>