<?xml version="1.0" encoding="utf-8"?>
<svg width="245px" height="76px" viewBox="0 0 245 76" version="1.1" xmlns="http://www.w3.org/2000/svg">
  <title>ACTA_NL_blue_RGB</title>
  <g id="Page-1" stroke="none" stroke-width="1" fill="none" fill-rule="evenodd">
    <g id="Artboard" transform="translate(-2726.000000, -179.000000)" fill="#232460">
      <g id="ACTA_NL_blue_RGB" transform="translate(2726.000000, 179.000000)">
        <polyline id="Fill-1" points="35.479 2.222 0 73.059 15.835 73.059 44.181 16.417 44.181 44.712 37.132 44.712 30.008 58.885 44.181 58.885 44.181 73.059 58.354 73.059 58.354 2.222 35.479 2.222" style="fill: rgb(0, 0, 102);"/>
        <polyline id="Fill-2" points="208.789 2.193 244.268 73.059 228.433 73.059 200.087 16.417 200.087 44.712 207.135 44.712 214.26 58.885 200.087 58.885 200.087 73.059 185.913 73.059 185.913 2.193 208.789 2.193" style="fill: rgb(0, 0, 102);"/>
        <polyline id="Fill-3" points="123.391 16.366 143.394 16.366 143.394 73.059 157.567 73.059 157.567 16.366 177.571 16.366 177.571 2.193 123.391 2.193 123.391 16.366" style="fill: rgb(0, 0, 102);"/>
        <path d="M66.09,37.711 C66.09,58.504 83.007,75.42 103.8,75.42 C107.724,75.42 111.504,74.804 115.063,73.686 L115.063,58.373 C111.715,60.206 107.879,61.253 103.8,61.253 C90.819,61.253 80.258,50.692 80.258,37.711 C80.258,24.729 90.819,14.167 103.8,14.167 C107.879,14.167 111.715,15.214 115.063,17.048 L115.063,1.735 C111.504,0.616 107.724,1.42108547e-14 103.8,1.42108547e-14 C83.007,1.42108547e-14 66.09,16.917 66.09,37.711" id="Fill-4" style="fill: rgb(0, 0, 102);"/>
      </g>
    </g>
  </g>
</svg>